<svg version="1.2" baseProfile="tiny-ps" xmlns="http://www.w3.org/2000/svg" viewBox="0 0 21 25" width="21" height="25">
	<title>Group 3</title>
	<style>
		tspan { white-space:pre }
		.shp0 { fill: #ffffff } 
	</style>
	<g id="Group 3">
		<g id="Folder 1">
			<path id="Rectangle 24" class="shp0" d="M2.77 0.75L18.23 0.75C19.81 0.75 21.09 2.03 21.09 3.61L21.09 3.64C21.09 5.22 19.81 6.5 18.23 6.5L2.77 6.5C1.19 6.5 -0.09 5.22 -0.09 3.64L-0.09 3.61C-0.09 2.03 1.19 0.75 2.77 0.75Z" />
			<path id="Rectangle 24 copy" class="shp0" d="M2.77 9.94L18.23 9.94C19.81 9.94 21.09 11.22 21.09 12.8C21.09 14.38 19.81 15.66 18.23 15.66L2.77 15.66C1.19 15.66 -0.09 14.38 -0.09 12.8C-0.09 11.22 1.19 9.94 2.77 9.94Z" />
			<path id="Rectangle 24 copy 2" class="shp0" d="M2.77 18.5L18.23 18.5C19.81 18.5 21.09 19.78 21.09 21.36L21.09 21.39C21.09 22.97 19.81 24.25 18.23 24.25L2.77 24.25C1.19 24.25 -0.09 22.97 -0.09 21.39L-0.09 21.36C-0.09 19.78 1.19 18.5 2.77 18.5Z" />
		</g>
	</g>
</svg>